<?xml version="1.0" encoding="UTF-8" standalone="no"?>
<!DOCTYPE svg PUBLIC "-//W3C//DTD SVG 1.1//EN" "http://www.w3.org/Graphics/SVG/1.1/DTD/svg11.dtd">
<svg width="100%" height="100%" viewBox="0 0 969 139" version="1.1" xmlns="http://www.w3.org/2000/svg" xmlns:xlink="http://www.w3.org/1999/xlink" xml:space="preserve" xmlns:serif="http://www.serif.com/" style="fill-rule:evenodd;clip-rule:evenodd;stroke-linejoin:round;stroke-miterlimit:2;">
    <g transform="matrix(1,0,0,1,-208.739,-330.552)">
        <g transform="matrix(150,0,0,150,223.589,440.202)">
            <path d="M-0.016,-0.08C-0.037,-0.075 -0.053,-0.067 -0.063,-0.055C-0.073,-0.043 -0.078,-0.025 -0.078,-0.002C-0.078,0.012 -0.076,0.026 -0.071,0.04C-0.066,0.053 -0.058,0.066 -0.049,0.077C-0.04,0.088 -0.028,0.097 -0.015,0.105C-0.002,0.112 0.013,0.115 0.029,0.115C0.052,0.115 0.073,0.11 0.09,0.099C0.107,0.088 0.122,0.074 0.134,0.057C0.146,0.04 0.156,0.022 0.164,0.002C0.171,-0.018 0.177,-0.037 0.18,-0.056C0.183,-0.073 0.185,-0.091 0.186,-0.108C0.187,-0.125 0.188,-0.143 0.188,-0.16C0.188,-0.17 0.188,-0.18 0.188,-0.19C0.187,-0.2 0.187,-0.21 0.186,-0.22C0.186,-0.26 0.186,-0.3 0.185,-0.339C0.184,-0.378 0.183,-0.418 0.183,-0.458C0.183,-0.511 0.185,-0.565 0.189,-0.619C0.189,-0.626 0.19,-0.634 0.191,-0.642C0.192,-0.65 0.193,-0.658 0.193,-0.667L0.193,-0.676C0.193,-0.678 0.193,-0.681 0.192,-0.684C0.157,-0.681 0.127,-0.67 0.101,-0.652C0.088,-0.645 0.076,-0.636 0.065,-0.626C0.053,-0.615 0.043,-0.604 0.034,-0.591C0.025,-0.578 0.017,-0.564 0.012,-0.549C0.007,-0.534 0.004,-0.517 0.004,-0.499C0.004,-0.48 0.009,-0.464 0.018,-0.449C0.027,-0.434 0.039,-0.423 0.055,-0.416C0.059,-0.419 0.062,-0.422 0.063,-0.427C0.064,-0.432 0.065,-0.435 0.068,-0.438C0.075,-0.447 0.083,-0.451 0.092,-0.451C0.099,-0.451 0.106,-0.448 0.111,-0.443C0.116,-0.438 0.119,-0.431 0.119,-0.423C0.119,-0.412 0.115,-0.404 0.106,-0.397C0.097,-0.39 0.088,-0.386 0.079,-0.386C0.063,-0.386 0.049,-0.39 0.037,-0.397C0.024,-0.404 0.014,-0.413 0.006,-0.425C-0.003,-0.436 -0.009,-0.449 -0.013,-0.464C-0.017,-0.479 -0.019,-0.494 -0.019,-0.51C-0.019,-0.538 -0.011,-0.564 0.006,-0.589C0.036,-0.633 0.072,-0.667 0.115,-0.691C0.157,-0.715 0.205,-0.728 0.26,-0.731C0.282,-0.731 0.304,-0.73 0.326,-0.728C0.347,-0.725 0.369,-0.723 0.391,-0.72C0.42,-0.716 0.444,-0.707 0.464,-0.693C0.484,-0.678 0.501,-0.661 0.514,-0.64C0.527,-0.619 0.536,-0.596 0.542,-0.571C0.548,-0.546 0.551,-0.52 0.551,-0.494C0.551,-0.459 0.546,-0.428 0.536,-0.401C0.525,-0.374 0.511,-0.352 0.493,-0.333C0.475,-0.314 0.454,-0.298 0.429,-0.287C0.404,-0.275 0.378,-0.266 0.35,-0.261C0.342,-0.259 0.335,-0.257 0.331,-0.256C0.326,-0.255 0.322,-0.253 0.32,-0.25C0.317,-0.247 0.316,-0.243 0.315,-0.238C0.314,-0.233 0.314,-0.226 0.314,-0.217C0.312,-0.176 0.306,-0.137 0.297,-0.1C0.288,-0.062 0.274,-0.028 0.255,0.004C0.236,0.035 0.211,0.062 0.182,0.085C0.152,0.108 0.116,0.125 0.074,0.138C0.061,0.141 0.048,0.143 0.037,0.143C0.019,0.143 0.002,0.14 -0.015,0.133C-0.031,0.126 -0.045,0.116 -0.058,0.104C-0.07,0.091 -0.08,0.076 -0.088,0.059C-0.095,0.042 -0.099,0.023 -0.099,0.003C-0.099,-0.011 -0.096,-0.025 -0.092,-0.04C-0.087,-0.055 -0.079,-0.068 -0.07,-0.081C-0.061,-0.093 -0.05,-0.103 -0.037,-0.111C-0.024,-0.118 -0.01,-0.122 0.006,-0.122C0.019,-0.121 0.03,-0.115 0.039,-0.106C0.048,-0.097 0.052,-0.085 0.052,-0.072C0.051,-0.063 0.048,-0.055 0.043,-0.049C0.038,-0.042 0.029,-0.039 0.017,-0.039C0.005,-0.039 -0.003,-0.046 -0.008,-0.061C-0.009,-0.064 -0.01,-0.067 -0.01,-0.071C-0.01,-0.074 -0.012,-0.077 -0.016,-0.08ZM0.317,-0.485C0.317,-0.466 0.317,-0.447 0.317,-0.428C0.316,-0.409 0.316,-0.39 0.316,-0.371L0.316,-0.343C0.316,-0.334 0.316,-0.324 0.317,-0.315C0.317,-0.307 0.318,-0.302 0.32,-0.299C0.321,-0.296 0.324,-0.294 0.329,-0.294L0.335,-0.294C0.337,-0.294 0.339,-0.295 0.342,-0.296C0.358,-0.302 0.372,-0.312 0.383,-0.325C0.394,-0.338 0.403,-0.354 0.41,-0.371C0.417,-0.388 0.422,-0.407 0.425,-0.427C0.428,-0.446 0.429,-0.466 0.429,-0.485C0.429,-0.508 0.427,-0.53 0.422,-0.553C0.417,-0.575 0.411,-0.598 0.404,-0.621C0.403,-0.626 0.4,-0.631 0.396,-0.638C0.392,-0.645 0.387,-0.651 0.382,-0.658C0.377,-0.664 0.371,-0.669 0.364,-0.674C0.357,-0.678 0.351,-0.68 0.344,-0.68C0.333,-0.68 0.328,-0.671 0.328,-0.652C0.328,-0.624 0.327,-0.596 0.325,-0.569C0.323,-0.541 0.321,-0.513 0.32,-0.485L0.317,-0.485Z" style="fill:rgb(100,54,117);fill-rule:nonzero;"/>
        </g>
        <g transform="matrix(150,0,0,150,305.489,440.202)">
            <path d="M0.148,-0.003C0.135,-0.003 0.122,-0.002 0.109,-0.001C0.095,0 0.083,0.001 0.07,0.001C0.063,0.001 0.058,-0.001 0.057,-0.005C0.055,-0.008 0.053,-0.015 0.052,-0.025C0.043,-0.08 0.037,-0.139 0.035,-0.2C0.033,-0.261 0.032,-0.32 0.032,-0.377C0.032,-0.414 0.033,-0.449 0.036,-0.482C0.038,-0.515 0.042,-0.549 0.047,-0.582C0.048,-0.59 0.051,-0.596 0.054,-0.601C0.057,-0.605 0.063,-0.607 0.071,-0.607L0.238,-0.607C0.264,-0.606 0.288,-0.601 0.311,-0.593C0.334,-0.584 0.354,-0.57 0.372,-0.549C0.388,-0.53 0.401,-0.508 0.411,-0.482C0.42,-0.456 0.425,-0.429 0.425,-0.401C0.425,-0.372 0.419,-0.344 0.408,-0.317C0.397,-0.29 0.378,-0.266 0.353,-0.246C0.352,-0.245 0.35,-0.244 0.349,-0.244C0.348,-0.243 0.347,-0.242 0.347,-0.241C0.334,-0.231 0.328,-0.224 0.328,-0.219C0.328,-0.216 0.332,-0.208 0.339,-0.197C0.348,-0.184 0.357,-0.173 0.366,-0.163C0.375,-0.153 0.385,-0.142 0.394,-0.131C0.395,-0.128 0.398,-0.125 0.402,-0.122C0.405,-0.119 0.409,-0.115 0.413,-0.112C0.416,-0.108 0.419,-0.104 0.422,-0.1C0.425,-0.096 0.426,-0.092 0.426,-0.089C0.426,-0.084 0.424,-0.079 0.419,-0.074C0.414,-0.069 0.409,-0.063 0.404,-0.055C0.399,-0.046 0.393,-0.038 0.387,-0.03C0.381,-0.022 0.375,-0.015 0.368,-0.009C0.361,-0.003 0.352,-0 0.343,-0C0.332,-0 0.321,-0.007 0.309,-0.02C0.296,-0.033 0.284,-0.048 0.273,-0.065C0.261,-0.082 0.251,-0.098 0.242,-0.116C0.233,-0.133 0.226,-0.145 0.222,-0.153C0.22,-0.156 0.218,-0.16 0.217,-0.164C0.216,-0.167 0.214,-0.171 0.213,-0.175C0.211,-0.178 0.209,-0.181 0.207,-0.184C0.204,-0.186 0.201,-0.187 0.196,-0.187C0.188,-0.187 0.182,-0.185 0.179,-0.18C0.175,-0.175 0.173,-0.171 0.173,-0.166L0.175,-0.142C0.174,-0.124 0.173,-0.106 0.173,-0.089C0.172,-0.072 0.172,-0.054 0.172,-0.036L0.172,-0.03C0.172,-0.019 0.171,-0.012 0.169,-0.009C0.166,-0.006 0.159,-0.004 0.148,-0.003ZM0.187,-0.221C0.206,-0.221 0.223,-0.227 0.236,-0.238C0.249,-0.249 0.26,-0.264 0.269,-0.281C0.278,-0.298 0.284,-0.316 0.288,-0.336C0.292,-0.356 0.294,-0.375 0.294,-0.392C0.294,-0.413 0.292,-0.433 0.287,-0.454C0.282,-0.475 0.276,-0.496 0.268,-0.517C0.266,-0.521 0.263,-0.526 0.258,-0.532C0.253,-0.538 0.248,-0.544 0.242,-0.549C0.236,-0.554 0.23,-0.558 0.223,-0.562C0.216,-0.565 0.21,-0.567 0.204,-0.567C0.195,-0.567 0.19,-0.558 0.189,-0.539C0.186,-0.495 0.183,-0.452 0.182,-0.409C0.18,-0.366 0.178,-0.323 0.175,-0.282L0.175,-0.243C0.176,-0.234 0.178,-0.229 0.179,-0.226C0.18,-0.223 0.183,-0.221 0.187,-0.221Z" style="fill:rgb(100,54,117);fill-rule:nonzero;"/>
        </g>
        <g transform="matrix(150,0,0,150,372.839,440.202)">
            <path d="M0.283,-0.021L0.289,-0.022L0.293,-0.022L0.317,-0.024C0.324,-0.024 0.329,-0.021 0.334,-0.016L0.333,-0.016C0.333,-0.011 0.332,-0.008 0.329,-0.007C0.326,-0.006 0.323,-0.006 0.322,-0.006C0.303,-0.001 0.283,0.002 0.264,0.005C0.244,0.008 0.224,0.009 0.205,0.009C0.16,0.009 0.125,0.002 0.099,-0.013C0.072,-0.027 0.054,-0.051 0.044,-0.085C0.04,-0.1 0.037,-0.115 0.034,-0.129C0.031,-0.142 0.03,-0.157 0.03,-0.172C0.029,-0.189 0.029,-0.207 0.029,-0.225C0.028,-0.243 0.028,-0.261 0.028,-0.278C0.028,-0.329 0.03,-0.379 0.033,-0.428C0.036,-0.476 0.042,-0.523 0.05,-0.569C0.052,-0.578 0.054,-0.586 0.055,-0.591C0.056,-0.596 0.058,-0.6 0.062,-0.603C0.065,-0.605 0.069,-0.606 0.075,-0.607C0.08,-0.607 0.088,-0.607 0.098,-0.607C0.115,-0.607 0.132,-0.607 0.15,-0.608C0.167,-0.608 0.183,-0.608 0.2,-0.608C0.217,-0.608 0.233,-0.608 0.25,-0.608C0.267,-0.607 0.284,-0.606 0.301,-0.605C0.305,-0.604 0.31,-0.603 0.315,-0.602C0.32,-0.601 0.324,-0.601 0.328,-0.601C0.335,-0.6 0.339,-0.597 0.34,-0.592C0.34,-0.587 0.34,-0.582 0.34,-0.577C0.341,-0.572 0.34,-0.568 0.337,-0.567C0.334,-0.566 0.33,-0.564 0.326,-0.563C0.311,-0.562 0.297,-0.56 0.282,-0.559C0.267,-0.558 0.251,-0.557 0.236,-0.557L0.225,-0.557C0.221,-0.557 0.217,-0.557 0.214,-0.558C0.205,-0.558 0.198,-0.556 0.193,-0.553C0.188,-0.549 0.184,-0.542 0.183,-0.533C0.178,-0.498 0.174,-0.463 0.171,-0.429C0.168,-0.394 0.166,-0.359 0.166,-0.324C0.166,-0.312 0.173,-0.306 0.186,-0.306L0.252,-0.306C0.257,-0.306 0.262,-0.305 0.267,-0.304C0.272,-0.303 0.274,-0.298 0.274,-0.29C0.274,-0.273 0.267,-0.265 0.252,-0.265C0.241,-0.265 0.229,-0.265 0.218,-0.264C0.206,-0.263 0.194,-0.262 0.181,-0.262C0.176,-0.262 0.171,-0.261 0.168,-0.26C0.164,-0.258 0.162,-0.253 0.162,-0.246L0.162,-0.229L0.16,-0.194C0.16,-0.172 0.161,-0.151 0.164,-0.13C0.167,-0.109 0.172,-0.09 0.181,-0.074C0.19,-0.058 0.202,-0.045 0.219,-0.036C0.235,-0.026 0.256,-0.021 0.283,-0.021Z" style="fill:rgb(100,54,117);fill-rule:nonzero;"/>
        </g>
        <g transform="matrix(150,0,0,150,423.539,440.202)">
            <path d="M0.053,0.006C0.037,0.006 0.024,0.005 0.015,0.002C0.006,-0.002 0.001,-0.006 0.001,-0.012C0.001,-0.015 0.002,-0.02 0.004,-0.025C0.005,-0.03 0.007,-0.037 0.01,-0.044C0.028,-0.095 0.043,-0.146 0.054,-0.199C0.065,-0.251 0.076,-0.302 0.089,-0.353C0.098,-0.392 0.109,-0.43 0.12,-0.467C0.131,-0.503 0.141,-0.541 0.152,-0.58C0.157,-0.598 0.169,-0.607 0.19,-0.607C0.205,-0.607 0.218,-0.607 0.227,-0.606C0.236,-0.604 0.243,-0.602 0.248,-0.598C0.253,-0.594 0.258,-0.588 0.261,-0.58C0.264,-0.572 0.268,-0.561 0.272,-0.547C0.294,-0.47 0.317,-0.394 0.341,-0.318C0.365,-0.241 0.389,-0.165 0.414,-0.088C0.417,-0.077 0.421,-0.066 0.426,-0.055C0.431,-0.044 0.433,-0.032 0.433,-0.02C0.433,-0.005 0.424,0.003 0.406,0.003L0.352,0.003C0.337,0.003 0.326,0.003 0.318,0.002C0.309,0.001 0.303,-0.001 0.298,-0.005C0.293,-0.008 0.288,-0.014 0.285,-0.023C0.282,-0.031 0.277,-0.042 0.272,-0.057L0.264,-0.081L0.25,-0.129L0.236,-0.173C0.234,-0.178 0.232,-0.181 0.229,-0.184C0.226,-0.186 0.223,-0.187 0.218,-0.188C0.213,-0.189 0.207,-0.189 0.199,-0.189C0.188,-0.189 0.176,-0.19 0.163,-0.192C0.15,-0.193 0.139,-0.194 0.128,-0.194C0.12,-0.194 0.115,-0.192 0.112,-0.187C0.109,-0.182 0.106,-0.172 0.103,-0.159C0.098,-0.136 0.092,-0.112 0.087,-0.088C0.081,-0.064 0.076,-0.04 0.073,-0.017C0.072,-0.009 0.07,-0.003 0.067,0.001C0.064,0.004 0.06,0.006 0.053,0.006ZM0.163,-0.383C0.16,-0.378 0.157,-0.368 0.152,-0.355C0.147,-0.342 0.143,-0.328 0.139,-0.313C0.134,-0.298 0.13,-0.283 0.127,-0.27C0.124,-0.256 0.122,-0.246 0.122,-0.239C0.122,-0.23 0.126,-0.224 0.133,-0.222C0.14,-0.22 0.152,-0.219 0.169,-0.219L0.196,-0.219C0.201,-0.219 0.206,-0.22 0.21,-0.223C0.213,-0.225 0.214,-0.229 0.212,-0.235C0.203,-0.258 0.195,-0.282 0.187,-0.306C0.179,-0.329 0.171,-0.355 0.163,-0.383Z" style="fill:rgb(100,54,117);fill-rule:nonzero;"/>
        </g>
        <g transform="matrix(150,0,0,150,487.439,440.202)">
            <path d="M0.378,-0.177C0.383,-0.177 0.388,-0.176 0.391,-0.174C0.394,-0.171 0.396,-0.167 0.396,-0.162C0.396,-0.155 0.395,-0.148 0.392,-0.141C0.389,-0.133 0.386,-0.127 0.384,-0.123C0.378,-0.108 0.37,-0.094 0.359,-0.079C0.347,-0.064 0.335,-0.051 0.321,-0.039C0.306,-0.027 0.291,-0.017 0.274,-0.01C0.257,-0.003 0.241,0.001 0.224,0.001C0.202,0.001 0.182,-0.003 0.164,-0.01C0.145,-0.017 0.129,-0.026 0.115,-0.038C0.1,-0.049 0.088,-0.063 0.077,-0.078C0.066,-0.093 0.056,-0.108 0.048,-0.123C0.037,-0.149 0.028,-0.176 0.023,-0.205C0.018,-0.233 0.015,-0.261 0.015,-0.29C0.015,-0.321 0.019,-0.355 0.028,-0.392C0.036,-0.428 0.049,-0.462 0.066,-0.493C0.083,-0.524 0.104,-0.55 0.13,-0.571C0.155,-0.592 0.185,-0.602 0.219,-0.602C0.268,-0.602 0.307,-0.589 0.336,-0.564C0.364,-0.538 0.383,-0.505 0.392,-0.465C0.393,-0.46 0.394,-0.456 0.395,-0.451C0.396,-0.446 0.396,-0.44 0.396,-0.435C0.396,-0.422 0.393,-0.409 0.388,-0.397C0.382,-0.385 0.372,-0.379 0.359,-0.379C0.348,-0.379 0.339,-0.384 0.331,-0.393C0.322,-0.402 0.318,-0.412 0.318,-0.423C0.318,-0.428 0.319,-0.433 0.322,-0.438L0.339,-0.464C0.341,-0.468 0.342,-0.472 0.342,-0.475C0.342,-0.48 0.34,-0.485 0.336,-0.491C0.331,-0.497 0.327,-0.502 0.324,-0.506C0.304,-0.529 0.284,-0.54 0.263,-0.54C0.253,-0.54 0.244,-0.537 0.235,-0.532C0.226,-0.527 0.219,-0.52 0.212,-0.512C0.205,-0.503 0.198,-0.494 0.193,-0.484C0.187,-0.474 0.182,-0.464 0.179,-0.454C0.17,-0.424 0.163,-0.394 0.159,-0.364C0.154,-0.333 0.152,-0.301 0.152,-0.268C0.153,-0.253 0.157,-0.235 0.162,-0.214C0.167,-0.192 0.175,-0.171 0.185,-0.151C0.195,-0.131 0.207,-0.114 0.222,-0.1C0.237,-0.085 0.253,-0.078 0.272,-0.078C0.282,-0.078 0.292,-0.08 0.301,-0.085C0.31,-0.09 0.318,-0.095 0.325,-0.103C0.332,-0.11 0.339,-0.117 0.344,-0.126C0.349,-0.135 0.354,-0.143 0.357,-0.15C0.36,-0.157 0.363,-0.164 0.365,-0.169C0.367,-0.174 0.371,-0.177 0.378,-0.177Z" style="fill:rgb(100,54,117);fill-rule:nonzero;"/>
        </g>
        <g transform="matrix(150,0,0,150,549.089,440.202)">
            <path d="M0.173,-0.573C0.173,-0.556 0.172,-0.54 0.171,-0.523C0.17,-0.506 0.169,-0.489 0.169,-0.472L0.169,-0.343C0.169,-0.337 0.169,-0.331 0.168,-0.325C0.168,-0.312 0.17,-0.305 0.173,-0.302C0.175,-0.299 0.183,-0.298 0.195,-0.298L0.271,-0.298C0.28,-0.298 0.286,-0.3 0.289,-0.305C0.292,-0.309 0.293,-0.315 0.293,-0.323C0.294,-0.356 0.295,-0.389 0.296,-0.421C0.296,-0.453 0.296,-0.486 0.296,-0.519L0.296,-0.56C0.298,-0.58 0.302,-0.592 0.309,-0.597C0.316,-0.602 0.328,-0.604 0.345,-0.604C0.354,-0.604 0.362,-0.603 0.369,-0.602C0.376,-0.6 0.384,-0.599 0.392,-0.599L0.408,-0.599C0.419,-0.599 0.427,-0.598 0.43,-0.595C0.432,-0.592 0.434,-0.586 0.434,-0.577C0.434,-0.533 0.433,-0.489 0.431,-0.445C0.428,-0.4 0.426,-0.354 0.425,-0.306L0.423,-0.306C0.42,-0.263 0.419,-0.219 0.419,-0.172C0.418,-0.125 0.415,-0.078 0.41,-0.03C0.409,-0.021 0.409,-0.015 0.408,-0.01C0.407,-0.005 0.406,-0.001 0.403,0.002C0.4,0.004 0.397,0.005 0.392,0.006C0.387,0.007 0.381,0.007 0.372,0.008L0.361,0.008L0.341,0.009C0.327,0.009 0.318,0.006 0.315,-0C0.312,-0.006 0.309,-0.019 0.306,-0.038C0.302,-0.07 0.3,-0.102 0.3,-0.134C0.299,-0.166 0.298,-0.198 0.295,-0.23C0.294,-0.245 0.292,-0.255 0.29,-0.258C0.288,-0.261 0.28,-0.262 0.267,-0.262L0.262,-0.262C0.249,-0.261 0.237,-0.26 0.226,-0.259C0.214,-0.258 0.202,-0.257 0.191,-0.257C0.182,-0.257 0.175,-0.255 0.172,-0.251C0.168,-0.246 0.166,-0.239 0.166,-0.23C0.167,-0.2 0.168,-0.17 0.169,-0.14C0.17,-0.109 0.17,-0.079 0.17,-0.049C0.17,-0.038 0.17,-0.029 0.17,-0.022C0.169,-0.014 0.168,-0.009 0.166,-0.006C0.164,-0.002 0.161,0.001 0.157,0.002C0.152,0.003 0.146,0.004 0.138,0.004L0.1,0.003C0.096,0.002 0.092,0.001 0.088,-0C0.078,-0.001 0.07,-0.002 0.065,-0.003C0.059,-0.004 0.055,-0.005 0.052,-0.008C0.049,-0.011 0.046,-0.015 0.045,-0.021C0.044,-0.026 0.042,-0.034 0.041,-0.044C0.037,-0.081 0.035,-0.118 0.034,-0.155C0.033,-0.191 0.033,-0.228 0.033,-0.265C0.033,-0.314 0.034,-0.364 0.035,-0.413C0.036,-0.462 0.036,-0.512 0.036,-0.563C0.036,-0.571 0.036,-0.577 0.037,-0.582C0.038,-0.587 0.039,-0.59 0.042,-0.593C0.044,-0.596 0.047,-0.598 0.053,-0.599C0.057,-0.6 0.064,-0.602 0.072,-0.604C0.075,-0.605 0.078,-0.605 0.083,-0.605C0.094,-0.605 0.105,-0.605 0.116,-0.604C0.126,-0.603 0.137,-0.602 0.148,-0.599C0.157,-0.596 0.164,-0.593 0.168,-0.59C0.171,-0.587 0.173,-0.581 0.173,-0.573Z" style="fill:rgb(100,54,117);fill-rule:nonzero;"/>
        </g>
        <g transform="matrix(150,0,0,150,618.539,440.202)">
            <path d="M0.283,-0.021L0.289,-0.022L0.293,-0.022L0.317,-0.024C0.324,-0.024 0.329,-0.021 0.334,-0.016L0.333,-0.016C0.333,-0.011 0.332,-0.008 0.329,-0.007C0.326,-0.006 0.323,-0.006 0.322,-0.006C0.303,-0.001 0.283,0.002 0.264,0.005C0.244,0.008 0.224,0.009 0.205,0.009C0.16,0.009 0.125,0.002 0.099,-0.013C0.072,-0.027 0.054,-0.051 0.044,-0.085C0.04,-0.1 0.037,-0.115 0.034,-0.129C0.031,-0.142 0.03,-0.157 0.03,-0.172C0.029,-0.189 0.029,-0.207 0.029,-0.225C0.028,-0.243 0.028,-0.261 0.028,-0.278C0.028,-0.329 0.03,-0.379 0.033,-0.428C0.036,-0.476 0.042,-0.523 0.05,-0.569C0.052,-0.578 0.054,-0.586 0.055,-0.591C0.056,-0.596 0.058,-0.6 0.062,-0.603C0.065,-0.605 0.069,-0.606 0.075,-0.607C0.08,-0.607 0.088,-0.607 0.098,-0.607C0.115,-0.607 0.132,-0.607 0.15,-0.608C0.167,-0.608 0.183,-0.608 0.2,-0.608C0.217,-0.608 0.233,-0.608 0.25,-0.608C0.267,-0.607 0.284,-0.606 0.301,-0.605C0.305,-0.604 0.31,-0.603 0.315,-0.602C0.32,-0.601 0.324,-0.601 0.328,-0.601C0.335,-0.6 0.339,-0.597 0.34,-0.592C0.34,-0.587 0.34,-0.582 0.34,-0.577C0.341,-0.572 0.34,-0.568 0.337,-0.567C0.334,-0.566 0.33,-0.564 0.326,-0.563C0.311,-0.562 0.297,-0.56 0.282,-0.559C0.267,-0.558 0.251,-0.557 0.236,-0.557L0.225,-0.557C0.221,-0.557 0.217,-0.557 0.214,-0.558C0.205,-0.558 0.198,-0.556 0.193,-0.553C0.188,-0.549 0.184,-0.542 0.183,-0.533C0.178,-0.498 0.174,-0.463 0.171,-0.429C0.168,-0.394 0.166,-0.359 0.166,-0.324C0.166,-0.312 0.173,-0.306 0.186,-0.306L0.252,-0.306C0.257,-0.306 0.262,-0.305 0.267,-0.304C0.272,-0.303 0.274,-0.298 0.274,-0.29C0.274,-0.273 0.267,-0.265 0.252,-0.265C0.241,-0.265 0.229,-0.265 0.218,-0.264C0.206,-0.263 0.194,-0.262 0.181,-0.262C0.176,-0.262 0.171,-0.261 0.168,-0.26C0.164,-0.258 0.162,-0.253 0.162,-0.246L0.162,-0.229L0.16,-0.194C0.16,-0.172 0.161,-0.151 0.164,-0.13C0.167,-0.109 0.172,-0.09 0.181,-0.074C0.19,-0.058 0.202,-0.045 0.219,-0.036C0.235,-0.026 0.256,-0.021 0.283,-0.021Z" style="fill:rgb(100,54,117);fill-rule:nonzero;"/>
        </g>
        <g transform="matrix(150,0,0,150,669.239,440.202)">
            <path d="M0.148,-0.003C0.135,-0.003 0.122,-0.002 0.109,-0.001C0.095,0 0.083,0.001 0.07,0.001C0.063,0.001 0.058,-0.001 0.057,-0.005C0.055,-0.008 0.053,-0.015 0.052,-0.025C0.043,-0.08 0.037,-0.139 0.035,-0.2C0.033,-0.261 0.032,-0.32 0.032,-0.377C0.032,-0.414 0.033,-0.449 0.036,-0.482C0.038,-0.515 0.042,-0.549 0.047,-0.582C0.048,-0.59 0.051,-0.596 0.054,-0.601C0.057,-0.605 0.063,-0.607 0.071,-0.607L0.238,-0.607C0.264,-0.606 0.288,-0.601 0.311,-0.593C0.334,-0.584 0.354,-0.57 0.372,-0.549C0.388,-0.53 0.401,-0.508 0.411,-0.482C0.42,-0.456 0.425,-0.429 0.425,-0.401C0.425,-0.372 0.419,-0.344 0.408,-0.317C0.397,-0.29 0.378,-0.266 0.353,-0.246C0.352,-0.245 0.35,-0.244 0.349,-0.244C0.348,-0.243 0.347,-0.242 0.347,-0.241C0.334,-0.231 0.328,-0.224 0.328,-0.219C0.328,-0.216 0.332,-0.208 0.339,-0.197C0.348,-0.184 0.357,-0.173 0.366,-0.163C0.375,-0.153 0.385,-0.142 0.394,-0.131C0.395,-0.128 0.398,-0.125 0.402,-0.122C0.405,-0.119 0.409,-0.115 0.413,-0.112C0.416,-0.108 0.419,-0.104 0.422,-0.1C0.425,-0.096 0.426,-0.092 0.426,-0.089C0.426,-0.084 0.424,-0.079 0.419,-0.074C0.414,-0.069 0.409,-0.063 0.404,-0.055C0.399,-0.046 0.393,-0.038 0.387,-0.03C0.381,-0.022 0.375,-0.015 0.368,-0.009C0.361,-0.003 0.352,-0 0.343,-0C0.332,-0 0.321,-0.007 0.309,-0.02C0.296,-0.033 0.284,-0.048 0.273,-0.065C0.261,-0.082 0.251,-0.098 0.242,-0.116C0.233,-0.133 0.226,-0.145 0.222,-0.153C0.22,-0.156 0.218,-0.16 0.217,-0.164C0.216,-0.167 0.214,-0.171 0.213,-0.175C0.211,-0.178 0.209,-0.181 0.207,-0.184C0.204,-0.186 0.201,-0.187 0.196,-0.187C0.188,-0.187 0.182,-0.185 0.179,-0.18C0.175,-0.175 0.173,-0.171 0.173,-0.166L0.175,-0.142C0.174,-0.124 0.173,-0.106 0.173,-0.089C0.172,-0.072 0.172,-0.054 0.172,-0.036L0.172,-0.03C0.172,-0.019 0.171,-0.012 0.169,-0.009C0.166,-0.006 0.159,-0.004 0.148,-0.003ZM0.187,-0.221C0.206,-0.221 0.223,-0.227 0.236,-0.238C0.249,-0.249 0.26,-0.264 0.269,-0.281C0.278,-0.298 0.284,-0.316 0.288,-0.336C0.292,-0.356 0.294,-0.375 0.294,-0.392C0.294,-0.413 0.292,-0.433 0.287,-0.454C0.282,-0.475 0.276,-0.496 0.268,-0.517C0.266,-0.521 0.263,-0.526 0.258,-0.532C0.253,-0.538 0.248,-0.544 0.242,-0.549C0.236,-0.554 0.23,-0.558 0.223,-0.562C0.216,-0.565 0.21,-0.567 0.204,-0.567C0.195,-0.567 0.19,-0.558 0.189,-0.539C0.186,-0.495 0.183,-0.452 0.182,-0.409C0.18,-0.366 0.178,-0.323 0.175,-0.282L0.175,-0.243C0.176,-0.234 0.178,-0.229 0.179,-0.226C0.18,-0.223 0.183,-0.221 0.187,-0.221Z" style="fill:rgb(100,54,117);fill-rule:nonzero;"/>
        </g>
        <g transform="matrix(150,0,0,150,784.589,440.202)">
            <path d="M0.713,0.097C0.713,0.112 0.709,0.125 0.703,0.137C0.696,0.149 0.686,0.159 0.675,0.168C0.664,0.176 0.651,0.182 0.636,0.187C0.621,0.191 0.606,0.193 0.59,0.193C0.568,0.193 0.547,0.188 0.527,0.179C0.506,0.17 0.488,0.158 0.471,0.143C0.454,0.128 0.438,0.111 0.425,0.092C0.411,0.073 0.399,0.055 0.39,0.037C0.388,0.032 0.386,0.027 0.384,0.022C0.381,0.016 0.379,0.011 0.376,0.006C0.373,0 0.369,-0.004 0.365,-0.008C0.36,-0.011 0.355,-0.013 0.348,-0.013C0.341,-0.013 0.335,-0.011 0.328,-0.008C0.321,-0.005 0.313,-0.002 0.306,-0.001C0.301,-0 0.296,0 0.291,0.001C0.286,0.001 0.28,0.001 0.275,0.001C0.238,0.001 0.205,-0.008 0.178,-0.026C0.15,-0.044 0.127,-0.067 0.108,-0.095C0.089,-0.122 0.074,-0.153 0.064,-0.187C0.053,-0.221 0.046,-0.254 0.043,-0.286C0.042,-0.299 0.04,-0.31 0.037,-0.321C0.034,-0.332 0.028,-0.342 0.021,-0.351C0.011,-0.368 0.004,-0.384 -0.001,-0.401C-0.005,-0.417 -0.007,-0.433 -0.007,-0.449C-0.007,-0.468 -0.004,-0.488 0.002,-0.508C0.008,-0.528 0.016,-0.548 0.027,-0.567C0.049,-0.609 0.077,-0.641 0.112,-0.662C0.147,-0.683 0.187,-0.693 0.232,-0.693C0.286,-0.693 0.331,-0.682 0.369,-0.66C0.405,-0.638 0.436,-0.604 0.461,-0.559C0.479,-0.525 0.492,-0.49 0.501,-0.455C0.51,-0.42 0.514,-0.383 0.514,-0.346C0.514,-0.321 0.512,-0.295 0.509,-0.268C0.505,-0.241 0.499,-0.214 0.491,-0.188C0.482,-0.161 0.472,-0.136 0.459,-0.113C0.446,-0.089 0.43,-0.068 0.412,-0.05C0.407,-0.046 0.404,-0.042 0.405,-0.037C0.405,-0.032 0.406,-0.027 0.409,-0.023C0.422,-0.005 0.437,0.014 0.452,0.033C0.467,0.051 0.484,0.069 0.502,0.085C0.52,0.101 0.54,0.114 0.561,0.125C0.582,0.136 0.604,0.142 0.628,0.144L0.637,0.144C0.642,0.144 0.647,0.143 0.652,0.141C0.657,0.139 0.661,0.134 0.664,0.127C0.657,0.122 0.65,0.117 0.644,0.111C0.638,0.104 0.635,0.096 0.635,0.087C0.635,0.076 0.638,0.065 0.644,0.056C0.65,0.047 0.66,0.042 0.673,0.042C0.685,0.042 0.695,0.048 0.702,0.06C0.709,0.071 0.713,0.084 0.713,0.097ZM0.285,-0.025C0.294,-0.025 0.304,-0.029 0.315,-0.038C0.326,-0.046 0.331,-0.055 0.331,-0.066C0.331,-0.071 0.33,-0.075 0.327,-0.079C0.324,-0.082 0.322,-0.086 0.319,-0.091C0.312,-0.1 0.304,-0.11 0.297,-0.12C0.29,-0.129 0.28,-0.135 0.267,-0.138C0.264,-0.138 0.261,-0.139 0.26,-0.14C0.258,-0.141 0.258,-0.143 0.259,-0.146C0.259,-0.15 0.261,-0.153 0.264,-0.155C0.267,-0.156 0.27,-0.157 0.273,-0.157C0.282,-0.156 0.291,-0.153 0.299,-0.15C0.306,-0.146 0.314,-0.142 0.322,-0.138C0.326,-0.134 0.331,-0.13 0.336,-0.125C0.341,-0.12 0.347,-0.116 0.355,-0.113C0.362,-0.126 0.368,-0.142 0.373,-0.159C0.377,-0.176 0.38,-0.195 0.383,-0.214C0.386,-0.233 0.388,-0.252 0.389,-0.271C0.39,-0.29 0.39,-0.308 0.39,-0.325C0.39,-0.347 0.389,-0.369 0.388,-0.392C0.387,-0.414 0.385,-0.436 0.382,-0.458C0.379,-0.483 0.371,-0.507 0.36,-0.529C0.348,-0.55 0.333,-0.569 0.315,-0.584C0.297,-0.599 0.277,-0.611 0.254,-0.62C0.231,-0.629 0.207,-0.633 0.182,-0.633C0.159,-0.633 0.138,-0.628 0.119,-0.617C0.1,-0.606 0.083,-0.591 0.069,-0.573C0.055,-0.554 0.044,-0.533 0.036,-0.51C0.028,-0.486 0.024,-0.461 0.024,-0.436C0.025,-0.406 0.035,-0.38 0.054,-0.359C0.073,-0.337 0.096,-0.323 0.125,-0.318C0.13,-0.318 0.135,-0.318 0.14,-0.317C0.145,-0.316 0.149,-0.316 0.153,-0.316C0.156,-0.315 0.16,-0.315 0.163,-0.314C0.166,-0.313 0.17,-0.313 0.173,-0.313C0.185,-0.313 0.197,-0.316 0.208,-0.322C0.219,-0.327 0.229,-0.335 0.238,-0.345C0.246,-0.354 0.253,-0.365 0.258,-0.378C0.263,-0.391 0.265,-0.404 0.265,-0.417C0.265,-0.44 0.258,-0.461 0.243,-0.48C0.24,-0.479 0.237,-0.478 0.235,-0.476C0.232,-0.473 0.23,-0.471 0.227,-0.469C0.224,-0.466 0.222,-0.464 0.219,-0.462C0.216,-0.46 0.211,-0.459 0.206,-0.459C0.197,-0.459 0.187,-0.463 0.177,-0.47C0.167,-0.476 0.162,-0.486 0.162,-0.498C0.162,-0.507 0.166,-0.516 0.173,-0.525C0.18,-0.534 0.19,-0.538 0.203,-0.538C0.233,-0.538 0.255,-0.528 0.27,-0.508C0.285,-0.488 0.292,-0.464 0.292,-0.436C0.292,-0.422 0.29,-0.408 0.287,-0.393C0.283,-0.378 0.277,-0.363 0.27,-0.35C0.263,-0.337 0.253,-0.325 0.241,-0.314C0.229,-0.303 0.215,-0.294 0.199,-0.288C0.192,-0.285 0.187,-0.283 0.184,-0.28C0.181,-0.277 0.179,-0.273 0.179,-0.266C0.179,-0.265 0.179,-0.263 0.18,-0.262C0.18,-0.261 0.18,-0.259 0.18,-0.258C0.183,-0.235 0.187,-0.212 0.191,-0.189C0.194,-0.166 0.199,-0.142 0.204,-0.119C0.208,-0.104 0.214,-0.09 0.222,-0.079C0.229,-0.067 0.237,-0.055 0.245,-0.042C0.25,-0.035 0.256,-0.031 0.263,-0.029C0.27,-0.026 0.278,-0.025 0.285,-0.025Z" style="fill:rgb(100,54,117);fill-rule:nonzero;"/>
        </g>
        <g transform="matrix(150,0,0,150,865.139,440.202)">
            <path d="M0.031,-0.358C0.03,-0.365 0.03,-0.371 0.03,-0.377L0.03,-0.396C0.03,-0.424 0.031,-0.452 0.033,-0.48C0.035,-0.508 0.037,-0.537 0.039,-0.566C0.04,-0.575 0.042,-0.583 0.044,-0.588C0.045,-0.593 0.048,-0.597 0.051,-0.6C0.054,-0.603 0.058,-0.604 0.063,-0.606C0.068,-0.607 0.075,-0.607 0.083,-0.607C0.096,-0.607 0.11,-0.607 0.123,-0.606C0.136,-0.605 0.149,-0.604 0.162,-0.601C0.173,-0.6 0.181,-0.597 0.185,-0.593C0.188,-0.588 0.19,-0.58 0.19,-0.569C0.187,-0.524 0.184,-0.48 0.182,-0.435C0.179,-0.389 0.178,-0.344 0.178,-0.299L0.175,-0.247C0.175,-0.231 0.176,-0.213 0.177,-0.192C0.178,-0.171 0.182,-0.152 0.189,-0.133C0.195,-0.114 0.204,-0.098 0.217,-0.086C0.23,-0.073 0.247,-0.066 0.269,-0.066C0.286,-0.066 0.301,-0.071 0.313,-0.08C0.325,-0.089 0.335,-0.101 0.344,-0.116C0.352,-0.131 0.358,-0.147 0.363,-0.164C0.367,-0.181 0.369,-0.197 0.37,-0.213C0.373,-0.267 0.376,-0.32 0.377,-0.373C0.378,-0.426 0.378,-0.479 0.378,-0.533L0.378,-0.577C0.378,-0.586 0.379,-0.594 0.382,-0.599C0.385,-0.604 0.392,-0.607 0.403,-0.607C0.416,-0.606 0.426,-0.603 0.433,-0.6C0.439,-0.596 0.443,-0.588 0.444,-0.577C0.444,-0.549 0.443,-0.521 0.44,-0.492C0.437,-0.463 0.436,-0.434 0.436,-0.405L0.436,-0.367C0.436,-0.352 0.436,-0.336 0.436,-0.318C0.435,-0.3 0.435,-0.282 0.434,-0.264C0.432,-0.245 0.431,-0.228 0.429,-0.211C0.427,-0.194 0.424,-0.178 0.421,-0.164C0.416,-0.143 0.409,-0.122 0.399,-0.102C0.388,-0.081 0.376,-0.063 0.361,-0.048C0.346,-0.032 0.329,-0.019 0.31,-0.01C0.291,0 0.269,0.005 0.245,0.005C0.2,0.005 0.164,-0.003 0.136,-0.019C0.107,-0.034 0.085,-0.056 0.07,-0.083C0.055,-0.11 0.044,-0.142 0.039,-0.179C0.033,-0.216 0.03,-0.255 0.03,-0.298L0.03,-0.358L0.031,-0.358Z" style="fill:rgb(100,54,117);fill-rule:nonzero;"/>
        </g>
        <g transform="matrix(150,0,0,150,935.189,440.202)">
            <path d="M0.517,-0.287C0.516,-0.262 0.511,-0.234 0.504,-0.202C0.496,-0.17 0.482,-0.137 0.463,-0.104C0.444,-0.07 0.416,-0.044 0.379,-0.026C0.342,-0.007 0.304,0.002 0.263,0.002C0.23,0.002 0.198,-0.005 0.167,-0.018C0.135,-0.031 0.109,-0.051 0.088,-0.079C0.063,-0.112 0.045,-0.149 0.033,-0.189C0.02,-0.228 0.014,-0.268 0.014,-0.309C0.014,-0.344 0.019,-0.38 0.03,-0.416C0.041,-0.452 0.056,-0.485 0.078,-0.515C0.098,-0.544 0.124,-0.568 0.155,-0.587C0.185,-0.606 0.22,-0.615 0.259,-0.615C0.3,-0.615 0.339,-0.604 0.376,-0.583C0.413,-0.562 0.442,-0.534 0.463,-0.5C0.481,-0.471 0.494,-0.44 0.503,-0.407C0.511,-0.374 0.516,-0.334 0.517,-0.287ZM0.386,-0.298C0.385,-0.313 0.384,-0.329 0.385,-0.345C0.386,-0.36 0.384,-0.376 0.381,-0.391C0.378,-0.404 0.376,-0.418 0.374,-0.431C0.371,-0.444 0.368,-0.457 0.364,-0.47C0.361,-0.483 0.357,-0.497 0.352,-0.51C0.346,-0.523 0.338,-0.536 0.329,-0.547C0.322,-0.556 0.315,-0.564 0.308,-0.569C0.3,-0.574 0.291,-0.577 0.282,-0.577C0.269,-0.577 0.253,-0.571 0.236,-0.558C0.225,-0.549 0.215,-0.537 0.207,-0.522C0.198,-0.507 0.191,-0.49 0.186,-0.473C0.181,-0.456 0.177,-0.438 0.174,-0.421C0.171,-0.403 0.168,-0.387 0.167,-0.374C0.165,-0.359 0.164,-0.343 0.163,-0.327C0.162,-0.311 0.162,-0.295 0.162,-0.28C0.162,-0.25 0.164,-0.221 0.168,-0.193C0.171,-0.164 0.178,-0.136 0.187,-0.107C0.192,-0.094 0.199,-0.081 0.207,-0.07C0.215,-0.059 0.224,-0.047 0.233,-0.036C0.246,-0.025 0.259,-0.019 0.272,-0.019C0.286,-0.019 0.299,-0.025 0.31,-0.036C0.317,-0.041 0.323,-0.047 0.327,-0.055C0.33,-0.062 0.334,-0.069 0.337,-0.077C0.356,-0.111 0.369,-0.147 0.376,-0.184C0.383,-0.221 0.386,-0.259 0.386,-0.298Z" style="fill:rgb(100,54,117);fill-rule:nonzero;"/>
        </g>
        <g transform="matrix(150,0,0,150,1014.54,440.202)">
            <path d="M0.37,-0.578C0.37,-0.567 0.364,-0.56 0.351,-0.557C0.338,-0.554 0.323,-0.552 0.308,-0.552L0.274,-0.552C0.263,-0.552 0.255,-0.55 0.252,-0.546C0.249,-0.541 0.247,-0.534 0.246,-0.525C0.245,-0.488 0.243,-0.451 0.241,-0.416C0.239,-0.381 0.238,-0.345 0.238,-0.309L0.238,-0.279L0.235,-0.047C0.235,-0.037 0.235,-0.029 0.234,-0.024C0.233,-0.018 0.232,-0.014 0.229,-0.011C0.226,-0.008 0.222,-0.007 0.217,-0.007C0.211,-0.006 0.203,-0.006 0.194,-0.006C0.184,-0.006 0.175,-0.006 0.168,-0.005C0.161,-0.004 0.154,-0.004 0.149,-0.004C0.142,-0.004 0.137,-0.005 0.133,-0.007C0.128,-0.008 0.125,-0.012 0.123,-0.017C0.12,-0.022 0.118,-0.029 0.117,-0.039C0.116,-0.048 0.114,-0.061 0.112,-0.077C0.109,-0.1 0.108,-0.124 0.108,-0.147C0.108,-0.169 0.108,-0.193 0.107,-0.216C0.106,-0.267 0.104,-0.318 0.103,-0.369C0.102,-0.42 0.101,-0.471 0.101,-0.522C0.101,-0.53 0.101,-0.536 0.1,-0.541C0.099,-0.546 0.098,-0.549 0.095,-0.551C0.092,-0.553 0.089,-0.554 0.084,-0.555C0.079,-0.555 0.072,-0.555 0.063,-0.555L0.051,-0.555L0.026,-0.552C0.015,-0.552 0.007,-0.553 -0.001,-0.556C-0.008,-0.558 -0.011,-0.566 -0.011,-0.579C-0.011,-0.587 -0.008,-0.592 -0.003,-0.595C0.003,-0.597 0.01,-0.598 0.017,-0.599C0.032,-0.6 0.046,-0.601 0.061,-0.601L0.351,-0.601C0.356,-0.601 0.361,-0.6 0.365,-0.597C0.368,-0.594 0.37,-0.587 0.37,-0.578Z" style="fill:rgb(100,54,117);fill-rule:nonzero;"/>
        </g>
        <g transform="matrix(150,0,0,150,1067.94,440.202)">
            <path d="M0.283,-0.021L0.289,-0.022L0.293,-0.022L0.317,-0.024C0.324,-0.024 0.329,-0.021 0.334,-0.016L0.333,-0.016C0.333,-0.011 0.332,-0.008 0.329,-0.007C0.326,-0.006 0.323,-0.006 0.322,-0.006C0.303,-0.001 0.283,0.002 0.264,0.005C0.244,0.008 0.224,0.009 0.205,0.009C0.16,0.009 0.125,0.002 0.099,-0.013C0.072,-0.027 0.054,-0.051 0.044,-0.085C0.04,-0.1 0.037,-0.115 0.034,-0.129C0.031,-0.142 0.03,-0.157 0.03,-0.172C0.029,-0.189 0.029,-0.207 0.029,-0.225C0.028,-0.243 0.028,-0.261 0.028,-0.278C0.028,-0.329 0.03,-0.379 0.033,-0.428C0.036,-0.476 0.042,-0.523 0.05,-0.569C0.052,-0.578 0.054,-0.586 0.055,-0.591C0.056,-0.596 0.058,-0.6 0.062,-0.603C0.065,-0.605 0.069,-0.606 0.075,-0.607C0.08,-0.607 0.088,-0.607 0.098,-0.607C0.115,-0.607 0.132,-0.607 0.15,-0.608C0.167,-0.608 0.183,-0.608 0.2,-0.608C0.217,-0.608 0.233,-0.608 0.25,-0.608C0.267,-0.607 0.284,-0.606 0.301,-0.605C0.305,-0.604 0.31,-0.603 0.315,-0.602C0.32,-0.601 0.324,-0.601 0.328,-0.601C0.335,-0.6 0.339,-0.597 0.34,-0.592C0.34,-0.587 0.34,-0.582 0.34,-0.577C0.341,-0.572 0.34,-0.568 0.337,-0.567C0.334,-0.566 0.33,-0.564 0.326,-0.563C0.311,-0.562 0.297,-0.56 0.282,-0.559C0.267,-0.558 0.251,-0.557 0.236,-0.557L0.225,-0.557C0.221,-0.557 0.217,-0.557 0.214,-0.558C0.205,-0.558 0.198,-0.556 0.193,-0.553C0.188,-0.549 0.184,-0.542 0.183,-0.533C0.178,-0.498 0.174,-0.463 0.171,-0.429C0.168,-0.394 0.166,-0.359 0.166,-0.324C0.166,-0.312 0.173,-0.306 0.186,-0.306L0.252,-0.306C0.257,-0.306 0.262,-0.305 0.267,-0.304C0.272,-0.303 0.274,-0.298 0.274,-0.29C0.274,-0.273 0.267,-0.265 0.252,-0.265C0.241,-0.265 0.229,-0.265 0.218,-0.264C0.206,-0.263 0.194,-0.262 0.181,-0.262C0.176,-0.262 0.171,-0.261 0.168,-0.26C0.164,-0.258 0.162,-0.253 0.162,-0.246L0.162,-0.229L0.16,-0.194C0.16,-0.172 0.161,-0.151 0.164,-0.13C0.167,-0.109 0.172,-0.09 0.181,-0.074C0.19,-0.058 0.202,-0.045 0.219,-0.036C0.235,-0.026 0.256,-0.021 0.283,-0.021Z" style="fill:rgb(100,54,117);fill-rule:nonzero;"/>
        </g>
        <g transform="matrix(150,0,0,150,1118.64,440.202)">
            <path d="M0.016,-0.435C0.016,-0.458 0.021,-0.48 0.03,-0.501C0.039,-0.522 0.051,-0.54 0.066,-0.555C0.081,-0.57 0.098,-0.582 0.118,-0.591C0.137,-0.6 0.158,-0.604 0.179,-0.604C0.208,-0.604 0.235,-0.6 0.261,-0.593C0.287,-0.585 0.311,-0.571 0.332,-0.552C0.335,-0.549 0.339,-0.544 0.344,-0.539C0.349,-0.533 0.351,-0.527 0.351,-0.522C0.351,-0.517 0.349,-0.511 0.346,-0.507C0.342,-0.502 0.337,-0.499 0.331,-0.499C0.324,-0.499 0.317,-0.502 0.311,-0.508C0.305,-0.514 0.299,-0.519 0.294,-0.522C0.287,-0.529 0.277,-0.537 0.266,-0.545C0.254,-0.552 0.241,-0.556 0.228,-0.556C0.219,-0.556 0.21,-0.552 0.201,-0.544C0.192,-0.536 0.187,-0.527 0.187,-0.516C0.187,-0.501 0.192,-0.487 0.201,-0.474C0.21,-0.461 0.219,-0.45 0.228,-0.44C0.245,-0.424 0.262,-0.407 0.281,-0.388C0.299,-0.369 0.316,-0.349 0.332,-0.328C0.347,-0.307 0.361,-0.284 0.372,-0.26C0.383,-0.235 0.388,-0.209 0.389,-0.18C0.389,-0.162 0.387,-0.145 0.383,-0.13C0.378,-0.115 0.371,-0.1 0.362,-0.087C0.354,-0.073 0.344,-0.06 0.332,-0.048C0.319,-0.035 0.305,-0.024 0.29,-0.015C0.275,-0.006 0.259,0.002 0.242,0.007C0.225,0.012 0.208,0.015 0.191,0.015C0.172,0.015 0.153,0.012 0.133,0.005C0.112,-0.002 0.094,-0.012 0.077,-0.025C0.06,-0.038 0.047,-0.055 0.036,-0.076C0.025,-0.096 0.02,-0.12 0.02,-0.147C0.02,-0.162 0.024,-0.175 0.032,-0.186C0.04,-0.197 0.051,-0.202 0.064,-0.202C0.075,-0.202 0.085,-0.198 0.094,-0.19C0.103,-0.181 0.107,-0.17 0.107,-0.157C0.107,-0.153 0.105,-0.148 0.102,-0.143C0.098,-0.138 0.094,-0.133 0.09,-0.128C0.086,-0.123 0.082,-0.118 0.079,-0.114C0.075,-0.109 0.073,-0.106 0.073,-0.103C0.073,-0.1 0.075,-0.096 0.078,-0.093C0.081,-0.09 0.086,-0.085 0.092,-0.079C0.105,-0.068 0.119,-0.058 0.132,-0.052C0.145,-0.045 0.159,-0.041 0.175,-0.041C0.194,-0.041 0.207,-0.045 0.215,-0.054C0.222,-0.062 0.226,-0.075 0.226,-0.093C0.226,-0.11 0.222,-0.125 0.215,-0.139C0.208,-0.152 0.199,-0.165 0.19,-0.178C0.167,-0.207 0.142,-0.235 0.116,-0.264C0.089,-0.292 0.065,-0.322 0.043,-0.353C0.025,-0.38 0.016,-0.407 0.016,-0.435Z" style="fill:rgb(100,54,117);fill-rule:nonzero;"/>
        </g>
    </g>
</svg>
